<svg width="24" height="24" viewBox="0 0 24 24" fill="none" xmlns="http://www.w3.org/2000/svg">
<path fill-rule="evenodd" clip-rule="evenodd" d="M6.4501 1.00563C7.01271 0.443023 7.77578 0.126953 8.57143 0.126953H15.4286C16.2242 0.126953 16.9873 0.443023 17.5498 1.00563C18.1125 1.56824 18.4286 2.33131 18.4286 3.12696V5.14279H21.4286C22.8487 5.14279 24 6.29405 24 7.71422V21.4285C24 22.8486 22.8487 23.9999 21.4286 23.9999H2.57143C1.15127 23.9999 0 22.8486 0 21.4285V7.71422C0 6.29405 1.15127 5.14279 2.57143 5.14279H5.57143V3.12696C5.57143 2.33131 5.88749 1.56824 6.4501 1.00563ZM15.8571 3.12696V5.14279H8.14286V3.12696C8.14286 3.01328 8.18801 2.90427 8.26838 2.82391C8.34876 2.74354 8.45777 2.69839 8.57143 2.69839H15.4286C15.5422 2.69839 15.6512 2.74354 15.7316 2.82391C15.812 2.90427 15.8571 3.01328 15.8571 3.12696ZM10.4946 11.9753C10.4946 11.6529 10.5496 11.519 10.57 11.4808L10.5713 11.4785C10.5794 11.4632 10.5846 11.4534 10.6288 11.4329C10.7001 11.3998 10.8371 11.3612 11.0906 11.339C11.3387 11.3172 11.6223 11.3161 11.9804 11.3161L12 11.3162L12.0171 11.3161C12.5728 11.3188 12.9959 11.4498 13.2448 11.6089C13.4732 11.7549 13.5052 11.8785 13.5052 11.9753C13.5052 12.567 13.9849 13.0467 14.5766 13.0467C15.1684 13.0467 15.6481 12.567 15.6481 11.9753C15.6481 10.9953 15.1032 10.2535 14.3989 9.80336C14.0045 9.55128 13.5505 9.37985 13.0714 9.2802V8.8026C13.0714 8.21086 12.5917 7.73117 12 7.73117C11.4083 7.73117 10.9286 8.21086 10.9286 8.8026V9.20218L10.9033 9.20434C10.5403 9.23619 10.122 9.30579 9.72699 9.48903C9.30703 9.68386 8.93309 9.99867 8.68123 10.4687C8.44092 10.9172 8.35171 11.4323 8.35171 11.9753C8.35171 13.0443 8.90616 13.8055 9.53945 14.3372C10.1194 14.8241 10.8588 15.1963 11.4631 15.5005L11.5179 15.5281C12.1923 15.8679 12.7138 16.1369 13.0825 16.4465C13.4155 16.726 13.5052 16.9383 13.5052 17.1673C13.5052 17.4896 13.4502 17.6235 13.4297 17.6617L13.4285 17.6641C13.4204 17.6794 13.4152 17.6891 13.371 17.7097C13.2997 17.7428 13.1627 17.7814 12.9092 17.8035C12.6566 17.8256 12.3672 17.8264 11.9999 17.8264C11.3674 17.8264 10.9452 17.7227 10.7171 17.5899C10.6173 17.5318 10.5732 17.479 10.5502 17.4397C10.528 17.4018 10.4946 17.3243 10.4946 17.1673C10.4946 16.5755 10.0149 16.0958 9.42314 16.0958C8.8314 16.0958 8.35171 16.5755 8.35171 17.1673C8.35171 18.2062 8.85449 18.9848 9.63862 19.4415C10.032 19.6707 10.4757 19.8085 10.9286 19.8855V20.3403C10.9286 20.932 11.4083 21.4117 12 21.4117C12.5917 21.4117 13.0714 20.932 13.0714 20.3403V19.9403C13.0798 19.9396 13.0881 19.939 13.0964 19.9381C13.4595 19.9064 13.8778 19.8368 14.2728 19.6535C14.6927 19.4586 15.0667 19.1439 15.3185 18.6738C15.5588 18.2254 15.6481 17.7102 15.6481 17.1673C15.6481 16.0982 15.0936 15.337 14.4603 14.8053C13.8804 14.3184 13.141 13.9462 12.5367 13.642L12.4819 13.6144C11.8074 13.2746 11.286 13.0056 10.9173 12.6961C10.5843 12.4165 10.4946 12.2042 10.4946 11.9753Z" fill="white"/>
</svg>
