<svg width="20" height="20" viewBox="0 0 20 20" fill="none" xmlns="http://www.w3.org/2000/svg">
<g opacity="0.6">
<path d="M13.1252 9.16602C11.236 9.16602 10.0961 9.24268 9.43495 9.31697C8.9137 9.37556 8.5315 9.7521 8.46666 10.2726C8.39887 10.8167 8.3335 11.6656 8.3335 12.916C8.3335 14.1664 8.39887 15.0153 8.46666 15.5594C8.5315 16.0799 8.91491 16.4566 9.43616 16.5152C9.91841 16.5693 10.6551 16.6247 11.7509 16.6507C12.0489 16.6578 12.3367 16.768 12.5603 16.9651L13.7674 18.0296C14.1292 18.3487 14.7007 18.1551 14.794 17.6818L14.9362 16.9602C14.9737 16.7703 15.1377 16.6315 15.3311 16.6229C15.985 16.5941 16.4664 16.5543 16.8148 16.5151C17.3361 16.4566 17.7188 16.0799 17.7837 15.5594C17.8515 15.0153 17.9168 14.1664 17.9168 12.916C17.9168 11.6656 17.8515 10.8167 17.7837 10.2726C17.7188 9.7521 17.3366 9.37556 16.8154 9.31697C16.1542 9.24268 15.0143 9.16602 13.1252 9.16602Z" fill="#197D5F"/>
<path d="M8.74984 1.66602C6.08713 1.66602 4.43125 1.7667 3.43582 1.86909C2.58556 1.95654 1.96669 2.58726 1.86882 3.43639C1.7667 4.32247 1.6665 5.66043 1.6665 7.49935C1.6665 9.33827 1.7667 10.6762 1.86882 11.5623C1.96669 12.4114 2.58622 13.0423 3.43648 13.1297C3.85402 13.1726 4.38771 13.2152 5.06309 13.2503C5.26625 13.2608 5.43463 13.4152 5.45938 13.6171L5.57092 14.5267C5.67692 15.3916 6.73471 15.7518 7.3465 15.1314L8.75567 13.7024C8.98946 13.4653 9.30938 13.3318 9.64234 13.3287C11.7905 13.3091 13.1848 13.22 14.064 13.1296C14.9143 13.0421 15.533 12.4114 15.6308 11.5623C15.733 10.6762 15.8332 9.33827 15.8332 7.49935C15.8332 5.66043 15.733 4.32247 15.6308 3.43639C15.533 2.58726 14.9141 1.95654 14.0638 1.86909C13.0684 1.7667 11.4125 1.66602 8.74984 1.66602Z" fill="#E5F9D2"/>
<path d="M5 5.83333C5 5.37308 5.37308 5 5.83333 5H11.6667C12.1269 5 12.5 5.37308 12.5 5.83333C12.5 6.29358 12.1269 6.66667 11.6667 6.66667H5.83333C5.37308 6.66667 5 6.29358 5 5.83333Z" fill="#197D5F"/>
<path d="M5 9.58333C5 9.12308 5.37308 8.75 5.83333 8.75H9.16667C9.62692 8.75 10 9.12308 10 9.58333C10 10.0436 9.62692 10.4167 9.16667 10.4167H5.83333C5.37308 10.4167 5 10.0436 5 9.58333Z" fill="#197D5F"/>
</g>
</svg>
