<svg width="14" height="14" viewBox="0 0 14 14" fill="none" xmlns="http://www.w3.org/2000/svg">
<path fill-rule="evenodd" clip-rule="evenodd" d="M5.82168 2.25022C6.13424 1.93766 6.55817 1.76207 7.0002 1.76207C7.44223 1.76207 7.86615 1.93766 8.17871 2.25022C8.3762 2.44772 8.51901 2.68966 8.59739 2.95254H5.40301C5.48139 2.68966 5.6242 2.44772 5.82168 2.25022ZM3.9418 2.95254C4.04215 2.30798 4.34451 1.70709 4.81153 1.24007C5.39201 0.659601 6.17929 0.333496 7.0002 0.333496C7.8211 0.333496 8.60839 0.659601 9.18886 1.24007C9.65588 1.70709 9.95829 2.30798 10.0586 2.95254H12.7145C13.109 2.95254 13.4288 3.27234 13.4288 3.66683C13.4288 4.06132 13.109 4.38111 12.7145 4.38111H11.7621V12.2383C11.7621 12.6171 11.6116 12.9805 11.3437 13.2484C11.0758 13.5164 10.7124 13.6668 10.3335 13.6668H3.66686C3.28798 13.6668 2.92462 13.5164 2.65671 13.2484C2.38881 12.9805 2.23829 12.6171 2.23829 12.2383V4.38111H1.28591C0.891421 4.38111 0.571625 4.06132 0.571625 3.66683C0.571625 3.27234 0.891421 2.95254 1.28591 2.95254H3.9418Z" fill="#828282"/>
</svg>
