<svg width="16" height="16" viewBox="0 0 16 16" fill="none" xmlns="http://www.w3.org/2000/svg">
<path fill-rule="evenodd" clip-rule="evenodd" d="M12.4096 0.131801C12.6185 0.0447952 12.8425 0 13.0687 0C13.295 0 13.519 0.0447951 13.7278 0.131801C13.9362 0.218641 14.1255 0.345816 14.2846 0.506013L14.2855 0.506933L15.493 1.7145L15.4938 1.71526C15.6541 1.87442 15.7814 2.0637 15.8682 2.27221C15.9552 2.48105 16 2.70505 16 2.93129C16 3.15753 15.9552 3.38153 15.8682 3.59037C15.7814 3.79869 15.6543 3.98782 15.4943 4.14689L15.493 4.14807L8.40318 11.2608C8.32066 11.3436 8.21474 11.3991 8.0997 11.4198L4.67266 12.0367C4.48997 12.0695 4.30267 12.0117 4.17042 11.8814C4.03817 11.7511 3.97745 11.5647 4.00758 11.3815L4.57875 7.90879C4.59819 7.79055 4.65432 7.68141 4.73919 7.59681L11.8531 0.505653C12.0122 0.345624 12.2014 0.218576 12.4096 0.131801ZM0 14.8571C0 14.2259 0.511674 13.7143 1.14286 13.7143H14.8571C15.4883 13.7143 16 14.2259 16 14.8571C16 15.4883 15.4883 16 14.8571 16H1.14286C0.511674 16 0 15.4883 0 14.8571Z" fill="#828282"/>
</svg>
