<svg width="12" height="12" viewBox="0 0 12 12" fill="none" xmlns="http://www.w3.org/2000/svg">
<path fill-rule="evenodd" clip-rule="evenodd" d="M4.78695 0.0338699C4.5223 0.050571 4.29469 0.236876 4.20396 0.506327C3.9917 1.13679 3.78024 1.802 3.57319 2.48153C2.67699 2.50456 1.97808 2.53212 1.56025 2.55057C1.29254 2.56241 1.05883 2.7436 0.965672 3.01535C0.800233 3.49793 0.704058 3.8485 0.648444 4.09809C0.578508 4.41193 0.792482 4.65457 1.09085 4.66193C1.701 4.677 2.31578 4.68822 2.92523 4.69635C2.67085 5.59878 2.43062 6.48801 2.21254 7.31764C1.66322 7.32615 1.22061 7.33475 0.9168 7.34119C0.635315 7.34716 0.38845 7.53998 0.296869 7.82798C0.163311 8.24796 0.0752897 8.56762 0.0172762 8.80655C-0.0662634 9.15063 0.163067 9.44282 0.491603 9.45816C0.880078 9.47625 1.26757 9.49156 1.65212 9.50435C1.45534 10.2917 1.29959 10.936 1.1978 11.3628C1.12212 11.6802 1.30476 11.9849 1.60755 11.9954C1.99204 12.0088 2.45415 11.9887 2.79136 11.9679C3.07276 11.9507 3.31058 11.7417 3.39155 11.4497L3.91738 9.55363C4.68495 9.56203 5.4221 9.56218 6.11068 9.55699L5.61642 11.3392C5.52649 11.6635 5.70937 11.987 6.0222 11.9965C6.41424 12.0085 6.88088 11.9871 7.21305 11.9661C7.47769 11.9494 7.70531 11.7631 7.79604 11.4937C8.00829 10.8632 8.21976 10.198 8.4268 9.51847C9.323 9.49545 10.0219 9.46789 10.4397 9.44943C10.7075 9.4376 10.9412 9.2564 11.0343 8.98466C11.1997 8.50208 11.2959 8.1515 11.3516 7.90192C11.4215 7.58807 11.2075 7.34544 10.9091 7.33808C10.299 7.32301 9.68422 7.31179 9.07476 7.30366C9.32915 6.40123 9.56938 5.512 9.78745 4.68234C10.3368 4.67386 10.7794 4.66525 11.0832 4.65881C11.3647 4.65285 11.6115 4.46003 11.7031 4.17202C11.8367 3.75205 11.9247 3.43239 11.9827 3.19346C12.0662 2.84938 11.8369 2.55719 11.5084 2.54185C11.1199 2.52375 10.7324 2.50844 10.3479 2.49565C10.5447 1.70832 10.7004 1.06398 10.8022 0.637186C10.8779 0.319853 10.6952 0.0151008 10.3924 0.00457103C10.008 -0.0088011 9.54585 0.011312 9.20863 0.0320452C8.92723 0.0493486 8.68941 0.258256 8.60842 0.550298L8.08262 2.44637C7.31505 2.43798 6.5779 2.43783 5.88932 2.44302L6.38358 0.660779C6.47351 0.336513 6.29063 0.013024 5.9778 0.00345549C5.58573 -0.00853997 5.11909 0.0129083 4.78695 0.0338699ZM6.7404 7.2863L7.45534 4.70827C6.77186 4.7129 6.03205 4.71528 5.25959 4.7137L4.54466 7.29173C5.22814 7.28711 5.96795 7.28473 6.7404 7.2863Z" fill="#D29AF7"/>
</svg>
