<svg width="111" height="21" viewBox="0 0 111 21" fill="none" xmlns="http://www.w3.org/2000/svg">
<path d="M32.4969 19.3963C34.8057 19.3963 36.8083 18.173 37.8213 16.3381L35.1827 14.8325C34.7115 15.797 33.6985 16.3851 32.4734 16.3851C30.6593 16.3851 29.3165 15.0442 29.3165 13.1857C29.3165 11.3038 30.6593 9.96285 32.4734 9.96285C33.6749 9.96285 34.6879 10.5745 35.1591 11.539L37.7742 10.0099C36.8083 8.1985 34.8057 6.97521 32.4969 6.97521C28.916 6.97521 26.2773 9.68055 26.2773 13.1857C26.2773 16.6909 28.916 19.3963 32.4969 19.3963Z" fill="url(#paint0_linear_941_3471)"/>
<path d="M45.9781 6.97521C44.3996 6.97521 43.1746 7.56333 42.4678 8.62194V2.59961H39.4287V19.0669H42.4678V12.7152C42.4678 10.6686 43.5751 9.79818 45.0593 9.79818C46.4257 9.79818 47.3916 10.6215 47.3916 12.2212V19.0669H50.4308V11.8448C50.4308 8.71604 48.4754 6.97521 45.9781 6.97521Z" fill="url(#paint1_linear_941_3471)"/>
<path d="M61.9782 7.30456V8.69252C61.1301 7.6339 59.8579 6.97521 58.1381 6.97521C55.0047 6.97521 52.4132 9.68055 52.4132 13.1857C52.4132 16.6909 55.0047 19.3963 58.1381 19.3963C59.8579 19.3963 61.1301 18.7376 61.9782 17.679V19.0669H65.0173V7.30456H61.9782ZM58.7035 16.5027C56.8423 16.5027 55.4523 15.1618 55.4523 13.1857C55.4523 11.2097 56.8423 9.86875 58.7035 9.86875C60.5882 9.86875 61.9782 11.2097 61.9782 13.1857C61.9782 15.1618 60.5882 16.5027 58.7035 16.5027Z" fill="url(#paint2_linear_941_3471)"/>
<path d="M70.8123 9.32768V7.30456H67.7732V19.0669H70.8123V13.4445C70.8123 10.9744 72.8149 10.2687 74.3933 10.4569V7.06931C72.9091 7.06931 71.4249 7.728 70.8123 9.32768Z" fill="url(#paint3_linear_941_3471)"/>
<path d="M83.0264 6.97521C81.3066 6.97521 80.058 7.61038 79.2099 8.69252V2.59961H76.1707V19.0669H79.2099V17.679C80.058 18.7611 81.3066 19.3963 83.0264 19.3963C86.1834 19.3963 88.7749 16.6909 88.7749 13.1857C88.7749 9.68055 86.1834 6.97521 83.0264 6.97521ZM82.461 16.5027C80.5999 16.5027 79.2099 15.1618 79.2099 13.1857C79.2099 11.2097 80.5999 9.86875 82.461 9.86875C84.3457 9.86875 85.7357 11.2097 85.7357 13.1857C85.7357 15.1618 84.3457 16.5027 82.461 16.5027Z" fill="url(#paint4_linear_941_3471)"/>
<path d="M93.4861 14.4325H102.368C102.439 14.0326 102.486 13.6327 102.486 13.1857C102.486 9.7276 100.012 6.97521 96.5253 6.97521C92.8265 6.97521 90.3056 9.68055 90.3056 13.1857C90.3056 16.6909 92.8029 19.3963 96.7608 19.3963C99.0225 19.3963 100.789 18.4788 101.897 16.8791L99.4466 15.4676C98.9283 16.1499 97.9859 16.6439 96.808 16.6439C95.2059 16.6439 93.9102 15.9852 93.4861 14.4325ZM93.439 12.0801C93.7924 10.5745 94.8997 9.70408 96.5253 9.70408C97.7974 9.70408 99.0696 10.3863 99.4466 12.0801H93.439Z" fill="url(#paint5_linear_941_3471)"/>
<path d="M111 10.2216V7.30456H108.338V4.01109L105.299 4.92856V7.30456H103.249V10.2216H105.299V15.1148C105.299 18.2906 106.736 19.5374 111 19.0669V16.3145C109.257 16.4086 108.338 16.3851 108.338 15.1148V10.2216H111Z" fill="url(#paint6_linear_941_3471)"/>
<g clip-path="url(#clip0_941_3471)">
<path d="M21.5754 15.6858C21.9388 14.5598 22.0833 13.3385 21.9519 12.0696C21.5185 7.82543 17.9766 4.44309 13.6773 4.14859C10.7571 3.94938 8.11272 5.14034 6.34396 7.11518C5.89739 7.61756 6.41401 8.39277 7.05759 8.18922C8.04705 7.8774 9.10217 7.7085 10.1967 7.7085C15.1089 7.7085 19.22 11.0995 20.2663 15.6468C20.4196 16.3138 21.3609 16.3441 21.5754 15.6945V15.6858Z" fill="url(#paint7_linear_941_3471)"/>
<path d="M12.132 2.09515C10.8579 0.592362 8.83964 -0.269466 6.63307 0.0726666C4.08939 0.466769 2.06233 2.52389 1.71646 5.04874C1.53258 6.39129 1.8084 7.65588 2.4082 8.72125C2.73218 9.29725 3.5684 9.28859 3.90113 8.71692C5.50352 5.96254 8.30113 3.98337 11.5978 3.45934C12.2458 3.35541 12.561 2.59319 12.1364 2.09948L12.132 2.09515Z" fill="url(#paint8_linear_941_3471)"/>
<path d="M9.82886 20.0784C10.5863 19.7493 11.405 19.5111 12.2806 19.3855C14.1719 19.117 16.0545 19.4765 17.6832 20.308C18.4143 20.6804 19.3075 20.1997 19.3863 19.3942C19.4519 18.7359 19.4476 18.0603 19.3688 17.3717C18.8565 12.911 15.2008 9.33808 10.6826 8.905C4.88159 8.35499 0 12.8503 0 18.4717C0 18.7316 0.00875622 18.9871 0.0306468 19.2383C0.0700498 19.7146 0.407164 20.1131 0.866866 20.2603C0.888756 20.269 0.910647 20.2733 0.928159 20.282C3.8396 21.2434 7.01373 21.3084 9.82448 20.0784H9.82886Z" fill="url(#paint9_linear_941_3471)"/>
</g>
<defs>
<linearGradient id="paint0_linear_941_3471" x1="-50.538" y1="-57.5707" x2="-11.8413" y2="59.037" gradientUnits="userSpaceOnUse">
<stop stop-color="#1BC47D"/>
<stop offset="1" stop-color="#9F29EE"/>
</linearGradient>
<linearGradient id="paint1_linear_941_3471" x1="-50.538" y1="-57.5707" x2="-11.8413" y2="59.037" gradientUnits="userSpaceOnUse">
<stop stop-color="#1BC47D"/>
<stop offset="1" stop-color="#9F29EE"/>
</linearGradient>
<linearGradient id="paint2_linear_941_3471" x1="-50.538" y1="-57.5707" x2="-11.8413" y2="59.037" gradientUnits="userSpaceOnUse">
<stop stop-color="#1BC47D"/>
<stop offset="1" stop-color="#9F29EE"/>
</linearGradient>
<linearGradient id="paint3_linear_941_3471" x1="-50.538" y1="-57.5707" x2="-11.8413" y2="59.037" gradientUnits="userSpaceOnUse">
<stop stop-color="#1BC47D"/>
<stop offset="1" stop-color="#9F29EE"/>
</linearGradient>
<linearGradient id="paint4_linear_941_3471" x1="-50.538" y1="-57.5707" x2="-11.8413" y2="59.037" gradientUnits="userSpaceOnUse">
<stop stop-color="#1BC47D"/>
<stop offset="1" stop-color="#9F29EE"/>
</linearGradient>
<linearGradient id="paint5_linear_941_3471" x1="-50.538" y1="-57.5707" x2="-11.8413" y2="59.037" gradientUnits="userSpaceOnUse">
<stop stop-color="#1BC47D"/>
<stop offset="1" stop-color="#9F29EE"/>
</linearGradient>
<linearGradient id="paint6_linear_941_3471" x1="-50.538" y1="-57.5707" x2="-11.8413" y2="59.037" gradientUnits="userSpaceOnUse">
<stop stop-color="#1BC47D"/>
<stop offset="1" stop-color="#9F29EE"/>
</linearGradient>
<linearGradient id="paint7_linear_941_3471" x1="28.2608" y1="22.6021" x2="3.86259" y2="-2.06705" gradientUnits="userSpaceOnUse">
<stop offset="0.277428" stop-color="#9122DC"/>
<stop offset="0.92" stop-color="#1BC47D"/>
</linearGradient>
<linearGradient id="paint8_linear_941_3471" x1="22.4993" y1="20.4837" x2="1.74747" y2="-0.499313" gradientUnits="userSpaceOnUse">
<stop offset="0.166226" stop-color="#9122DC"/>
<stop offset="0.92" stop-color="#1BC47D"/>
</linearGradient>
<linearGradient id="paint9_linear_941_3471" x1="15.9232" y1="23.1879" x2="-9.45808" y2="-2.47064" gradientUnits="userSpaceOnUse">
<stop offset="0.106179" stop-color="#9122DC"/>
<stop offset="0.811626" stop-color="#1BC47D"/>
</linearGradient>
<clipPath id="clip0_941_3471">
<rect width="22" height="21" fill="white"/>
</clipPath>
</defs>
</svg>
