<svg width="12" height="12" viewBox="0 0 12 12" fill="none" xmlns="http://www.w3.org/2000/svg">
<path fill-rule="evenodd" clip-rule="evenodd" d="M6.00017 0.396973C5.83481 0.396973 5.6729 0.444279 5.53356 0.533308C5.39599 0.6212 5.28608 0.746132 5.21643 0.893678L3.89347 3.56459C3.89087 3.56984 3.88838 3.57514 3.886 3.58049C3.88541 3.58182 3.88448 3.58298 3.8833 3.58384C3.88213 3.58469 3.88075 3.58524 3.8793 3.58539C3.87423 3.58595 3.86916 3.58661 3.86411 3.58736L0.951125 4.01891C0.790122 4.03457 0.636589 4.09499 0.507993 4.19349C0.374933 4.29541 0.274281 4.43373 0.218231 4.59169C0.162181 4.74964 0.153137 4.92047 0.192194 5.08347C0.231101 5.24583 0.316075 5.39349 0.43688 5.50869L2.56919 7.56604L2.56916 7.56609L2.57405 7.57065C2.57709 7.5735 2.57938 7.57706 2.5807 7.58102C2.58202 7.58497 2.58233 7.58919 2.58159 7.59329L2.58113 7.59602L2.07301 10.5697L2.07288 10.5704C2.04497 10.7316 2.06277 10.8973 2.12428 11.0488C2.18587 11.2007 2.28883 11.3321 2.42144 11.4283C2.55406 11.5243 2.71099 11.5813 2.87439 11.5927C3.03747 11.604 3.20045 11.5694 3.34487 11.4929L3.34492 11.4928L3.34574 11.4924L5.97031 10.1053C5.97972 10.1013 5.98989 10.0991 6.00018 10.0991C6.01048 10.0991 6.02064 10.1013 6.03006 10.1053L8.65458 11.4924L8.65508 11.4927C8.79958 11.5694 8.96275 11.6041 9.12592 11.5927C9.28933 11.5813 9.44625 11.5243 9.57892 11.4283C9.7115 11.3321 9.8145 11.2007 9.87608 11.0488C9.93758 10.8973 9.95533 10.7317 9.9275 10.5706L9.92733 10.5697L9.41925 7.59601L9.41875 7.59329C9.418 7.58919 9.41833 7.58497 9.41967 7.58102C9.42092 7.57707 9.42325 7.5735 9.42625 7.57065L9.42633 7.57069L9.43117 7.56604L11.5635 5.50867C11.6843 5.39346 11.7693 5.24582 11.8082 5.08347C11.8472 4.92047 11.8382 4.74964 11.7821 4.59169C11.7261 4.43373 11.6254 4.29541 11.4923 4.19349C11.3638 4.09499 11.2103 4.03457 11.0493 4.01891L8.13623 3.58736C8.13118 3.58661 8.12612 3.58595 8.12104 3.58539C8.11959 3.58524 8.11821 3.58469 8.11703 3.58384C8.11586 3.58298 8.11493 3.58182 8.11434 3.58049C8.11197 3.57514 8.10948 3.56984 8.10688 3.56459L6.7839 0.893666C6.71425 0.746125 6.60434 0.621198 6.46678 0.533308C6.32743 0.444279 6.16553 0.396973 6.00017 0.396973Z" fill="#1BC47D"/>
</svg>
